<?xml version="1.0" encoding="utf-8"?>
<!-- Generator: Adobe Illustrator 19.2.0, SVG Export Plug-In . SVG Version: 6.00 Build 0)  -->
<svg version="1.1" id="Layer_1" xmlns="http://www.w3.org/2000/svg" xmlns:xlink="http://www.w3.org/1999/xlink" x="0px" y="0px"
	 viewBox="0 0 33.4 32.8" style="enable-background:new 0 0 33.4 32.8;" xml:space="preserve">
<style type="text/css">
	.st0{fill:#1A85C7;stroke:#0A699A;stroke-miterlimit:10;}
	.st1{fill:#192A53;stroke:#121E46;stroke-miterlimit:10;}
</style>
<title>cardinal logo</title>
<path class="st0" d="M15.9,14.7c1.2,1.4,5.5,4.6,5.5,4.6s0.7,1,2.5,0.4l8.3-7.5c0,0,1.7-1.9-0.1-3c-1.9-1.1-7.4-3.8-7.4-3.8
	s-1.3-0.3-2.3,0.4l-6,5.9C16.3,11.7,14.7,13.2,15.9,14.7z"/>
<path class="st1" d="M19.3,3.6c-0.1-1.1-2.3-2.3-3.1-2.8c-1.7-1.1-3.6,1.3-3.6,1.3l-8.7,8.1c-2,1.8-4,3.1-3.1,6.1
	c0.6,2,1.7,4,2.5,5.9l3,7.1c0.6,1.4,1.5,3.2,3.2,2.9c1.6-0.3,2.8-2.1,4-3.1c1.3-1.1,2.6-2.3,3.8-3.6c1.3-1.4,1-3.2,0.6-4.2
	c-0.9-2.3-3.1-3.5-4.2-5.5c-1.6-3,0-5.9,2.1-8c0.8-0.9,3.4-2.7,3.6-4C19.3,3.8,19.3,3.7,19.3,3.6z"/>
</svg>
